HIERARCHY
ROOT Hips
{
    OFFSET   0.000000   0.000000   0.000000
    CHANNELS 6 Xposition Yposition Zposition Zrotation Xrotation Yrotation
    JOINT Chest
    {
        OFFSET   0.000000   8.007230   0.000000
        CHANNELS 3 Zrotation Xrotation Yrotation
        JOINT Chest2
        {
            OFFSET   0.000000  22.077100   0.000000
            CHANNELS 3 Zrotation Xrotation Yrotation
            JOINT Neck
            {
                OFFSET   0.000000  23.254700   0.000000
                CHANNELS 3 Zrotation Xrotation Yrotation
                JOINT Head
                {
                    OFFSET   0.000010  14.370000   1.956610
                    CHANNELS 3 Zrotation Xrotation Yrotation
                    End Site
                    {
                        OFFSET   0.000000  19.566000   0.000000
                    }
                }
            }
            JOINT LeftCollar
            {
                OFFSET   3.911900  19.017000  -0.467063
                CHANNELS 3 Zrotation Xrotation Yrotation
                JOINT LeftShoulder
                {
                    OFFSET  10.383700   0.000000   0.000000
                    CHANNELS 3 Zrotation Xrotation Yrotation
                    JOINT LeftElbow
                    {
                        OFFSET  26.662100   0.001671   0.000522
                        CHANNELS 3 Zrotation Xrotation Yrotation
                        JOINT LeftWrist
                        {
                            OFFSET  28.869000   0.000037  -0.000114
                            CHANNELS 3 Zrotation Xrotation Yrotation
                            JOINT LeftFinger0
                            {
                                OFFSET   2.044650  -2.323450   3.252850
                                CHANNELS 3 Zrotation Xrotation Yrotation
                                JOINT LeftFinger01
                                {
                                    OFFSET   3.088140   0.000000   0.000000
                                    CHANNELS 3 Zrotation Xrotation Yrotation
                                    JOINT LeftFinger02
                                    {
                                        OFFSET   2.639460   0.000000   0.000000
                                        CHANNELS 3 Zrotation Xrotation Yrotation
                                        End Site
                                        {
                                            OFFSET   2.582190   0.000000   0.000000
                                        }
                                    }
                                }
                            }
                            JOINT LeftFinger1
                            {
                                OFFSET   8.364480   0.000000   3.252850
                                CHANNELS 3 Zrotation Xrotation Yrotation
                                JOINT LeftFinger11
                                {
                                    OFFSET   4.646930   0.000000   0.000000
                                    CHANNELS 3 Zrotation Xrotation Yrotation
                                    JOINT LeftFinger12
                                    {
                                        OFFSET   2.323470   0.000000   0.000000
                                        CHANNELS 3 Zrotation Xrotation Yrotation
                                        End Site
                                        {
                                            OFFSET   2.273050   0.000000   0.000000
                                        }
                                    }
                                }
                            }
                            JOINT LeftFinger2
                            {
                                OFFSET   8.364490   0.000016   1.078090
                                CHANNELS 3 Zrotation Xrotation Yrotation
                                JOINT LeftFinger21
                                {
                                    OFFSET   5.111620   0.000000   0.000000
                                    CHANNELS 3 Zrotation Xrotation Yrotation
                                    JOINT LeftFinger22
                                    {
                                        OFFSET   2.788150   0.000013   0.000000
                                        CHANNELS 3 Zrotation Xrotation Yrotation
                                        End Site
                                        {
                                            OFFSET   2.727660   0.000000   0.000000
                                        }
                                    }
                                }
                            }
                            JOINT LeftFinger3
                            {
                                OFFSET   7.899780   0.000016  -1.078090
                                CHANNELS 3 Zrotation Xrotation Yrotation
                                JOINT LeftFinger31
                                {
                                    OFFSET   4.646930   0.000000   0.000000
                                    CHANNELS 3 Zrotation Xrotation Yrotation
                                    JOINT LeftFinger32
                                    {
                                        OFFSET   2.323470   0.000000   0.000000
                                        CHANNELS 3 Zrotation Xrotation Yrotation
                                        End Site
                                        {
                                            OFFSET   2.273050   0.000000   0.000000
                                        }
                                    }
                                }
                            }
                            JOINT LeftFinger4
                            {
                                OFFSET   7.435080   0.000000  -3.252850
                                CHANNELS 3 Zrotation Xrotation Yrotation
                                JOINT LeftFinger41
                                {
                                    OFFSET   3.717550   0.000000   0.000000
                                    CHANNELS 3 Zrotation Xrotation Yrotation
                                    JOINT LeftFinger42
                                    {
                                        OFFSET   1.858760   0.000000   0.000000
                                        CHANNELS 3 Zrotation Xrotation Yrotation
                                        End Site
                                        {
                                            OFFSET   1.818440   0.000000   0.000000
                                        }
                                    }
                                }
                            }
                        }
                    }
                }
            }
            JOINT RightCollar
            {
                OFFSET  -3.911900  19.017000  -0.467064
                CHANNELS 3 Zrotation Xrotation Yrotation
                JOINT RightShoulder
                {
                    OFFSET -10.383700   0.000000   0.000000
                    CHANNELS 3 Zrotation Xrotation Yrotation
                    JOINT RightElbow
                    {
                        OFFSET -26.662100   0.001633   0.000260
                        CHANNELS 3 Zrotation Xrotation Yrotation
                        JOINT RightWrist
                        {
                            OFFSET -28.869000  -0.000045  -0.000080
                            CHANNELS 3 Zrotation Xrotation Yrotation
                            JOINT RightFinger0
                            {
                                OFFSET  -2.044660  -2.323490   3.252850
                                CHANNELS 3 Zrotation Xrotation Yrotation
                                JOINT RightFinger01
                                {
                                    OFFSET  -3.088140   0.000000   0.000000
                                    CHANNELS 3 Zrotation Xrotation Yrotation
                                    JOINT RightFinger02
                                    {
                                        OFFSET  -2.639450   0.000000   0.000000
                                        CHANNELS 3 Zrotation Xrotation Yrotation
                                        End Site
                                        {
                                            OFFSET  -2.582190   0.000000   0.000000
                                        }
                                    }
                                }
                            }
                            JOINT RightFinger1
                            {
                                OFFSET  -8.364480   0.000000   3.252850
                                CHANNELS 3 Zrotation Xrotation Yrotation
                                JOINT RightFinger11
                                {
                                    OFFSET  -4.646920   0.000000   0.000000
                                    CHANNELS 3 Zrotation Xrotation Yrotation
                                    JOINT RightFinger12
                                    {
                                        OFFSET  -2.323470   0.000000   0.000000
                                        CHANNELS 3 Zrotation Xrotation Yrotation
                                        End Site
                                        {
                                            OFFSET  -2.273050   0.000000   0.000000
                                        }
                                    }
                                }
                            }
                            JOINT RightFinger2
                            {
                                OFFSET  -8.364480   0.000000   1.078090
                                CHANNELS 3 Zrotation Xrotation Yrotation
                                JOINT RightFinger21
                                {
                                    OFFSET  -5.111610   0.000000   0.000000
                                    CHANNELS 3 Zrotation Xrotation Yrotation
                                    JOINT RightFinger22
                                    {
                                        OFFSET  -2.788160   0.000000   0.000000
                                        CHANNELS 3 Zrotation Xrotation Yrotation
                                        End Site
                                        {
                                            OFFSET  -2.727660   0.000000   0.000000
                                        }
                                    }
                                }
                            }
                            JOINT RightFinger3
                            {
                                OFFSET  -7.899780   0.000000  -1.078090
                                CHANNELS 3 Zrotation Xrotation Yrotation
                                JOINT RightFinger31
                                {
                                    OFFSET  -4.646930   0.000000   0.000000
                                    CHANNELS 3 Zrotation Xrotation Yrotation
                                    JOINT RightFinger32
                                    {
                                        OFFSET  -2.323470   0.000000   0.000000
                                        CHANNELS 3 Zrotation Xrotation Yrotation
                                        End Site
                                        {
                                            OFFSET  -2.273050   0.000000   0.000000
                                        }
                                    }
                                }
                            }
                            JOINT RightFinger4
                            {
                                OFFSET  -7.435090   0.000000  -3.252850
                                CHANNELS 3 Zrotation Xrotation Yrotation
                                JOINT RightFinger41
                                {
                                    OFFSET  -3.717550   0.000000   0.000000
                                    CHANNELS 3 Zrotation Xrotation Yrotation
                                    JOINT RightFinger42
                                    {
                                        OFFSET  -1.858760   0.000000   0.000000
                                        CHANNELS 3 Zrotation Xrotation Yrotation
                                        End Site
                                        {
                                            OFFSET  -1.818440   0.000000   0.000000
                                        }
                                    }
                                }
                            }
                        }
                    }
                }
            }
        }
    }
    JOINT LeftHip
    {
        OFFSET   9.782990   0.000000   0.000000
        CHANNELS 3 Zrotation Xrotation Yrotation
        JOINT LeftKnee
        {
            OFFSET  -0.000063 -41.789100   0.001657
            CHANNELS 3 Zrotation Xrotation Yrotation
            JOINT LeftAnkle
            {
                OFFSET   0.000078 -41.133200  -0.000113
                CHANNELS 3 Zrotation Xrotation Yrotation
                JOINT LeftToe
                {
                    OFFSET   0.000000  -6.358970  14.674500
                    CHANNELS 3 Zrotation Xrotation Yrotation
                    End Site
                    {
                        OFFSET   0.000000   0.000000   3.913200
                    }
                }
            }
        }
    }
    JOINT RightHip
    {
        OFFSET  -9.782990   0.000000   0.000000
        CHANNELS 3 Zrotation Xrotation Yrotation
        JOINT RightKnee
        {
            OFFSET   0.000053 -41.789200   0.000277
            CHANNELS 3 Zrotation Xrotation Yrotation
            JOINT RightAnkle
            {
                OFFSET   0.000030 -41.133200  -0.000150
                CHANNELS 3 Zrotation Xrotation Yrotation
                JOINT RightToe
                {
                    OFFSET   0.000000  -6.358960  14.674500
                    CHANNELS 3 Zrotation Xrotation Yrotation
                    End Site
                    {
                        OFFSET   0.000000   0.000000   3.913200
                    }
                }
            }
        }
    }
}
MOTION
Frames: 6
Frame Time:   0.016667
 -2.621730  89.523600  -2.866310  -2.317330 -10.806800  -9.360440  -0.535254   7.006650   2.529450  -1.400100  13.982100   5.183950  -0.045830  -1.149590   0.000296  -0.078688  -2.329930  -8.447950  -7.108300  -2.430560   3.216630 -70.540800  19.838600  -5.473650  -0.023749  -0.840275 -18.366200  13.380900  -4.047620   3.594620  43.927900  40.505700 -69.285100 -32.646600   0.000000   0.000315 -11.332900   0.001553   0.000000 -33.770100   5.763400  -8.540670 -27.982400   0.008202   0.001568 -19.587700   0.011865   0.000459 -28.633900  -2.758520   5.034870 -40.806100   0.005687  -0.010654 -27.176900  -0.005588   0.001043 -28.669900  -2.761370   5.033320 -42.948200  -0.005136   0.002653 -28.603500  -0.004579   0.001144 -36.755800  -3.441840   4.595550 -55.340800  -0.005450  -0.001032 -36.857000  -0.002548  -0.009951  11.381700  -1.103320  10.256500  65.785400   7.750450  -5.334780  -5.038580  -4.944670  18.316900  -9.412000  -2.289070   5.277760 -48.665800  41.339400  79.269600  24.809000   0.000438  -0.001491   7.404510  -0.012939   0.003923  30.849600   6.538470  10.792900  25.746300   0.001446  -0.002057  18.022400   0.002046  -0.003370  28.593400   0.466598   0.855931  37.345600   0.000271  -0.005670  24.872200  -0.001645  -0.001954  27.951700  -0.423526  -0.798254  31.704800   0.005972  -0.002761  21.115400  -0.006147  -0.002258  32.315400  -0.483114  -0.764165  48.477000   0.001532  -0.003964  32.285700   0.001970  -0.013461   0.714543  13.954900   8.012660   1.380830   0.299360   7.683950  -1.713470  -3.787680   0.988385  -0.000000   0.000000   0.000000   1.383780  10.791100   7.715470  -0.937437   3.668370  -9.578430   1.220620  -3.847860   2.265920  -0.000000   0.000000   0.000000
 -2.599570  89.523700  -2.853860  -2.305980 -10.829300  -9.365290  -0.548171   6.994120   2.518760  -1.424240  13.956700   5.163610  -0.073200  -1.140410   0.000302  -0.122109  -2.311200  -9.302300  -7.085980  -2.375430   3.238480 -70.568100  19.808300  -5.483220  -0.019869  -0.829856 -18.354200  13.379900  -4.038960   3.588880  43.934500  40.511600 -69.268800 -32.652700   0.000000   0.000318 -11.333600   0.001558   0.000000 -33.762800   5.741160  -8.511680 -27.973600   0.008204   0.001567 -19.581500   0.011866   0.000461 -28.631600  -2.771240   5.058410 -40.779700   0.005688  -0.010656 -27.159300  -0.005588   0.001045 -28.667600  -2.774190   5.056810 -42.926800  -0.005136   0.002655 -28.589200  -0.004578   0.001142 -36.744500  -3.456720   4.617850 -55.325900  -0.005452  -0.001029 -36.847100  -0.002548  -0.009950  11.332000  -1.059330  10.225100  65.777500   7.735500  -5.336580  -5.135510  -4.753230  18.467700  -9.341850  -1.861270   5.323960 -48.592500  41.266500  79.108600  24.832100   0.000448  -0.001489   7.416080  -0.012949   0.003927  30.799900   6.510150  10.765100  25.702000   0.001438  -0.002069  17.991400   0.002049  -0.003390  28.587300   0.445545   0.817536  37.252800   0.000231  -0.005664  24.810400  -0.001645  -0.001932  27.936400  -0.445496  -0.840219  31.609000   0.005991  -0.002772  21.051600  -0.006152  -0.002260  32.267100  -0.508503  -0.805931  48.404800   0.001514  -0.003950  32.237600   0.001974  -0.013460   0.683758  14.020200   8.022080   1.370430   0.249697   7.677590  -1.696000  -3.794480   0.995997  -0.000000   0.000000   0.000000   1.353800  10.811900   7.724330  -0.940842   3.673450  -9.574410   1.232200  -3.849910   2.261720  -0.000000   0.000000   0.000000
 -2.562120  89.523800  -2.834520  -2.292290 -10.869700  -9.376180  -0.569174   6.972680   2.497360  -1.462940  13.913200   5.122350  -0.117832  -1.118590   0.000307  -0.193599  -2.266440 -10.753200  -7.045200  -2.273350   3.277800 -70.614200  19.753800  -5.501590  -0.012351  -0.808664 -18.337500  13.377900  -4.019410   3.577710  43.944600  40.517700 -69.241300 -32.658700   0.000000   0.000322 -11.334200   0.001562   0.000000 -33.748300   5.718910  -8.482680 -27.959500   0.008208   0.001566 -19.571600   0.011866   0.000467 -28.629300  -2.783970   5.081960 -40.739000   0.005693  -0.010665 -27.132200  -0.005587   0.001047 -28.665400  -2.787000   5.080310 -42.892600  -0.005135   0.002660 -28.566500  -0.004577   0.001139 -36.725800  -3.471590   4.640160 -55.299600  -0.005456  -0.001027 -36.829600  -0.002549  -0.009948  11.240100  -0.979360  10.163200  65.749600   7.715060  -5.343710  -5.337890  -4.388420  18.791900  -9.164320  -1.100620   5.407550 -48.484000  41.157600  78.871500  24.867400   0.000467  -0.001487   7.433720  -0.012972   0.003933  30.693700   6.463980  10.737000  25.610500   0.001424  -0.002104  17.927400   0.002052  -0.003432  28.574700   0.408239   0.749488  37.071700   0.000142  -0.005649  24.689800  -0.001645  -0.001890  27.906700  -0.484970  -0.915841  31.426600   0.006035  -0.002795  20.930100  -0.006167  -0.002271  32.179700  -0.552599  -0.878849  48.274200   0.001474  -0.003922  32.150600   0.001982  -0.013453   0.636136  14.114400   8.037890   1.353530   0.200034   7.667670  -1.666160  -3.804980   1.009570   0.000000   0.000000   0.000000   1.308990  10.851900   7.740310  -0.948850   3.681140  -9.567600   1.252620  -3.854320   2.255220   0.000000   0.000000   0.000000
 -2.531120  89.524000  -2.821950  -2.292340 -10.907200  -9.389250  -0.584280   6.953590   2.472580  -1.489420  13.874700   5.073580  -0.152930  -1.088700   0.000304  -0.250772  -2.206230 -11.975000  -7.005000  -2.169460   3.316120 -70.653300  19.700300  -5.521910  -0.003887  -0.783246 -18.331200  13.375400  -3.992280   3.565280  43.951800  40.516200 -69.223200 -32.653100   0.000000   0.000322 -11.329300   0.001557   0.000000 -33.736500   5.720040  -8.486950 -27.950400   0.008214   0.001568 -19.565200   0.011865   0.000477 -28.629600  -2.781570   5.077650 -40.716400   0.005705  -0.010679 -27.117100  -0.005588   0.001045 -28.665800  -2.784630   5.075980 -42.871200  -0.005136   0.002661 -28.552200  -0.004578   0.001140 -36.710900  -3.467740   4.636900 -55.276800  -0.005458  -0.001028 -36.814400  -0.002549  -0.009947  11.147000  -0.898810  10.094000  65.701900   7.708200  -5.354120  -5.584220  -3.999850  19.189800  -8.898860  -0.387992   5.483430 -48.413700  41.089400  78.724700  24.883300   0.000486  -0.001510   7.441640  -0.012998   0.003934  30.556800   6.430220  10.742000  25.496300   0.001411  -0.002164  17.847400   0.002047  -0.003487  28.560300   0.377207   0.692922  36.877100   0.000015  -0.005627  24.560100  -0.001643  -0.001839  27.874300  -0.520206  -0.983768  31.233600   0.006097  -0.002828  20.801600  -0.006193  -0.002296  32.096700  -0.587302  -0.937024  48.150200   0.001419  -0.003885  32.068100   0.001993  -0.013434   0.605965  14.151800   8.050340   1.347000   0.200249   7.660650  -1.640530  -3.808950   1.021550   0.000000   0.000000  -0.000000   1.284420  10.898300   7.755560  -0.960159   3.683500  -9.562690   1.271120  -3.860120   2.250260   0.000000   0.000000   0.000000
 -2.499360  89.524100  -2.811240  -2.298640 -10.949400  -9.408800  -0.599935   6.935360   2.443710  -1.516570  13.837900   5.016630  -0.183932  -1.048440   0.000300  -0.301728  -2.125040 -13.220700  -6.960520  -2.055060   3.356430 -70.691400  19.644700  -5.544080   0.005404  -0.754104 -18.329400  13.372900  -3.960470   3.551180  43.955500  40.506700 -69.195200 -32.642000   0.000000   0.000322 -11.321000   0.001546   0.000000 -33.722800   5.722610  -8.496190 -27.939500   0.008220   0.001570 -19.557600   0.011864   0.000490 -28.630400  -2.776330   5.068210 -40.691800   0.005720  -0.010698 -27.100700  -0.005589   0.001043 -28.666700  -2.779440   5.066500 -42.846500  -0.005137   0.002662 -28.535800  -0.004579   0.001141 -36.692800  -3.459490   4.629570 -55.249000  -0.005460  -0.001029 -36.795800  -0.002550  -0.009945  11.044000  -0.815480  10.012200  65.625600   7.706600  -5.377490  -5.886900  -3.559040  19.703500  -8.550780   0.373977   5.576090 -48.379100  41.056600  78.654600  24.906100   0.000513  -0.001534   7.453050  -0.013033   0.003936  30.403300   6.396690  10.749300  25.368300   0.001397  -0.002241  17.757800   0.002042  -0.003552  28.541600   0.336585   0.618711  36.639800  -0.000126  -0.005603  24.402100  -0.001641  -0.001794  27.836000  -0.563555  -1.067520  31.012700   0.006180  -0.002865  20.654400  -0.006227  -0.002328  32.002300  -0.632778  -1.013370  48.009600   0.001355  -0.003845  31.974500   0.002007  -0.013412   0.580051  14.187100   8.063590   1.342250   0.200464   7.655370  -1.614460  -3.817300   1.036090   0.000000   0.000000   0.000000   1.265150  10.944500   7.772510  -0.974248   3.689320  -9.556140   1.291330  -3.866760   2.247600  -0.000000   0.000000   0.000000
 -2.466730  89.524200  -2.801600  -2.309030 -10.997000  -9.437470  -0.617850   6.919960   2.412000  -1.548090  13.806900   4.954280  -0.208430  -0.996635   0.000315  -0.340435  -2.020350 -14.470900  -6.912560  -1.934850   3.397310 -70.726300  19.592900  -5.566560   0.014137  -0.723239 -18.333400  13.373200  -3.928260   3.536240  43.952100  40.484000 -69.141000 -32.628100   0.000000   0.000322 -11.313900   0.001533   0.000000 -33.700800   5.727230  -8.511810 -27.922300   0.008225   0.001566 -19.545500   0.011867   0.000512 -28.631900  -2.767310   5.051970 -40.653000   0.005736  -0.010722 -27.074900  -0.005589   0.001043 -28.668300  -2.770510   5.050210 -42.809300  -0.005141   0.002666 -28.511000  -0.004579   0.001143 -36.667700  -3.445750   4.616610 -55.209800  -0.005462  -0.001018 -36.769700  -0.002551  -0.009943  10.935000  -0.737768   9.920660  65.513900   7.718530  -5.421830  -6.241170  -3.077190  20.341000  -8.127070   1.160560   5.696320 -48.345100  41.075300  78.686000  24.972900   0.000560  -0.001529   7.486430  -0.013083   0.003953  30.255000   6.354330  10.750200  25.243900   0.001382  -0.002327  17.670700   0.002050  -0.003625  28.516100   0.268690   0.494354  36.338900  -0.000266  -0.005577  24.201700  -0.001641  -0.001775  27.790300  -0.628301  -1.192400  30.760400   0.006287  -0.002899  20.486300  -0.006269  -0.002361  31.888400  -0.709768  -1.141650  47.841400   0.001289  -0.003804  31.862400   0.002025  -0.013394   0.557203  14.252800   8.078340   1.330180   0.199859   7.653240  -1.589530  -3.843220   1.054590  -0.000000   0.000000   0.000000   1.247150  10.974700   7.791170  -0.988187   3.717250  -9.546030   1.313360  -3.873300   2.248170   0.000000   0.000000   0.000000
